# MagicaVoxel @ Ephtracy

# group
o 

# material
mtllib CocaCola.mtl
usemtl palette

# normals
vn -1 0 0
vn 1 0 0
vn 0 0 1
vn 0 0 -1
vn 0 -1 0
vn 0 1 0

# texcoords
vt 0.814453 0.5
vt 0.845703 0.5
vt 0.876953 0.5
vt 0.908203 0.5
vt 0.939453 0.5
vt 0.970703 0.5

# verts
v 1.3 2.4 -2.7
v 1.3 2.4 -3.7
v 1.3 7 -2.7
v 1.3 7 -3.7
v 1.4 2.4 -2.6
v 1.4 2.4 -2.7
v 1.4 2.4 -3.7
v 1.4 2.4 -3.8
v 1.4 7 -2.6
v 1.4 7 -2.7
v 1.4 7 -3.7
v 1.4 7 -3.8
v 1.5 2.4 -2.5
v 1.5 2.4 -2.6
v 1.5 2.4 -3.8
v 1.5 2.4 -3.9
v 1.5 7 -2.5
v 1.5 7 -2.6
v 1.5 7 -3.8
v 1.5 7 -3.9
v 1.6 2.2 -2.6
v 1.6 2.2 -3.8
v 1.6 2.4 -2.6
v 1.6 2.4 -3.8
v 1.6 7 -2.5
v 1.6 7 -3.8
v 1.6 7.2 -2.5
v 1.6 7.2 -3.8
v 1.7 2.2 -2.5
v 1.7 2.2 -2.6
v 1.7 2.2 -3.8
v 1.7 2.2 -3.9
v 1.7 2.4 -2.5
v 1.7 2.4 -2.6
v 1.7 2.4 -3.8
v 1.7 2.4 -3.9
v 1.7 7 -3.8
v 1.7 7 -3.9
v 1.7 7.2 -3.8
v 1.7 7.2 -3.9
v 1.8 2 -2.6
v 1.8 2 -3.8
v 1.8 2.2 -2.6
v 1.8 2.2 -3.8
v 1.8 7.2 -2.5
v 1.8 7.2 -3.8
v 1.8 7.4 -2.5
v 1.8 7.4 -3.8
v 1.8 7.4 -3.9
v 1.8 7.5 -2.5
v 1.8 7.5 -3.9
v 1.9 2 -2.5
v 1.9 2 -2.6
v 1.9 2 -3.8
v 1.9 2 -3.9
v 1.9 2.2 -2.5
v 1.9 2.2 -2.6
v 1.9 2.2 -3.8
v 1.9 2.2 -3.9
v 1.9 7.2 -3.8
v 1.9 7.2 -3.9
v 1.9 7.4 -3.8
v 1.9 7.4 -3.9
v 1.9 7.5 -2.5
v 1.9 7.5 -3.9
v 1.9 7.6 -2.5
v 1.9 7.6 -3.9
v 2 7.6 -2.5
v 2 7.6 -3.9
v 2 7.8 -2.5
v 2 7.8 -3.9
v 4.2 7.6 -2.5
v 4.2 7.6 -3.9
v 4.2 7.8 -2.5
v 4.2 7.8 -3.9
v 4.4 2 -2.5
v 4.4 2 -3.9
v 4.4 2.2 -2.5
v 4.4 2.2 -3.9
v 4.4 7.2 -2.5
v 4.4 7.2 -3.9
v 4.4 7.4 -2.5
v 4.4 7.4 -3.9
v 4.4 7.6 -2.5
v 4.4 7.6 -3.9
v 4.6 2.2 -2.5
v 4.6 2.2 -3.9
v 4.6 2.4 -2.5
v 4.6 2.4 -3.9
v 4.6 7 -2.5
v 4.6 7 -3.9
v 4.6 7.2 -2.5
v 4.6 7.2 -3.9
v 4.7 2.4 -2.5
v 4.7 2.4 -2.6
v 4.7 2.4 -3.8
v 4.7 2.4 -3.9
v 4.7 7 -2.5
v 4.7 7 -2.6
v 4.7 7 -3.8
v 4.7 7 -3.9
v 4.8 2.4 -2.6
v 4.8 2.4 -2.7
v 4.8 2.4 -3.7
v 4.8 2.4 -3.8
v 4.8 7 -2.6
v 4.8 7 -2.7
v 4.8 7 -3.7
v 4.8 7 -3.8
v 4.9 2.4 -2.7
v 4.9 2.4 -3.7
v 4.9 7 -2.7
v 4.9 7 -3.7
v 1.5 2.4 -2.5
v 1.5 7 -2.5
v 1.6 7 -2.5
v 1.6 7.2 -2.5
v 1.7 2.2 -2.5
v 1.7 2.4 -2.5
v 1.8 7.2 -2.5
v 1.8 7.4 -2.5
v 1.8 7.5 -2.5
v 1.9 2 -2.5
v 1.9 2.2 -2.5
v 1.9 7.5 -2.5
v 1.9 7.6 -2.5
v 2 2.6 -2.5
v 2 6.8 -2.5
v 2 7.6 -2.5
v 2 7.8 -2.5
v 2.2 6.8 -2.5
v 2.2 7 -2.5
v 2.4 7 -2.5
v 2.4 7.2 -2.5
v 2.6 2.6 -2.5
v 2.6 6.8 -2.5
v 2.8 6.8 -2.5
v 2.8 7 -2.5
v 3 7 -2.5
v 3 7.2 -2.5
v 3.2 7 -2.5
v 3.2 7.2 -2.5
v 3.4 6.8 -2.5
v 3.4 7 -2.5
v 3.6 2.6 -2.5
v 3.6 6.8 -2.5
v 4 7 -2.5
v 4 7.2 -2.5
v 4.2 6.8 -2.5
v 4.2 7 -2.5
v 4.2 7.6 -2.5
v 4.2 7.8 -2.5
v 4.4 2 -2.5
v 4.4 2.2 -2.5
v 4.4 2.6 -2.5
v 4.4 6.8 -2.5
v 4.4 7.2 -2.5
v 4.4 7.4 -2.5
v 4.4 7.6 -2.5
v 4.6 2.2 -2.5
v 4.6 2.4 -2.5
v 4.6 7 -2.5
v 4.6 7.2 -2.5
v 4.7 2.4 -2.5
v 4.7 7 -2.5
v 1.4 2.4 -2.6
v 1.4 7 -2.6
v 1.5 2.4 -2.6
v 1.5 7 -2.6
v 1.6 2.2 -2.6
v 1.6 2.4 -2.6
v 1.7 2.2 -2.6
v 1.7 2.4 -2.6
v 1.8 2 -2.6
v 1.8 2.2 -2.6
v 1.9 2 -2.6
v 1.9 2.2 -2.6
v 4.7 2.4 -2.6
v 4.7 7 -2.6
v 4.8 2.4 -2.6
v 4.8 7 -2.6
v 1.3 2.4 -2.7
v 1.3 7 -2.7
v 1.4 2.4 -2.7
v 1.4 7 -2.7
v 4.8 2.4 -2.7
v 4.8 7 -2.7
v 4.9 2.4 -2.7
v 4.9 7 -2.7
v 1.3 2.4 -3.7
v 1.3 7 -3.7
v 1.4 2.4 -3.7
v 1.4 7 -3.7
v 4.8 2.4 -3.7
v 4.8 7 -3.7
v 4.9 2.4 -3.7
v 4.9 7 -3.7
v 1.4 2.4 -3.8
v 1.4 7 -3.8
v 1.5 2.4 -3.8
v 1.5 7 -3.8
v 1.6 2.2 -3.8
v 1.6 2.4 -3.8
v 1.6 7 -3.8
v 1.6 7.2 -3.8
v 1.7 2.2 -3.8
v 1.7 2.4 -3.8
v 1.7 7 -3.8
v 1.7 7.2 -3.8
v 1.8 2 -3.8
v 1.8 2.2 -3.8
v 1.8 7.2 -3.8
v 1.8 7.4 -3.8
v 1.9 2 -3.8
v 1.9 2.2 -3.8
v 1.9 7.2 -3.8
v 1.9 7.4 -3.8
v 4.7 2.4 -3.8
v 4.7 7 -3.8
v 4.8 2.4 -3.8
v 4.8 7 -3.8
v 1.5 2.4 -3.9
v 1.5 7 -3.9
v 1.7 2.2 -3.9
v 1.7 2.4 -3.9
v 1.7 7 -3.9
v 1.7 7.2 -3.9
v 1.8 7.4 -3.9
v 1.8 7.5 -3.9
v 1.9 2 -3.9
v 1.9 2.2 -3.9
v 1.9 7.2 -3.9
v 1.9 7.4 -3.9
v 1.9 7.5 -3.9
v 1.9 7.6 -3.9
v 2 2.6 -3.9
v 2 6.8 -3.9
v 2 7.6 -3.9
v 2 7.8 -3.9
v 2.2 6.8 -3.9
v 2.2 7 -3.9
v 2.4 7 -3.9
v 2.4 7.2 -3.9
v 2.6 2.6 -3.9
v 2.6 6.8 -3.9
v 2.8 6.8 -3.9
v 2.8 7 -3.9
v 3 7 -3.9
v 3 7.2 -3.9
v 3.2 7 -3.9
v 3.2 7.2 -3.9
v 3.4 6.8 -3.9
v 3.4 7 -3.9
v 3.6 2.6 -3.9
v 3.6 6.8 -3.9
v 4 7 -3.9
v 4 7.2 -3.9
v 4.2 6.8 -3.9
v 4.2 7 -3.9
v 4.2 7.6 -3.9
v 4.2 7.8 -3.9
v 4.4 2 -3.9
v 4.4 2.2 -3.9
v 4.4 2.6 -3.9
v 4.4 6.8 -3.9
v 4.4 7.2 -3.9
v 4.4 7.4 -3.9
v 4.4 7.6 -3.9
v 4.6 2.2 -3.9
v 4.6 2.4 -3.9
v 4.6 7 -3.9
v 4.6 7.2 -3.9
v 4.7 2.4 -3.9
v 4.7 7 -3.9
v 1.9 2 -2.5
v 4.4 2 -2.5
v 1.8 2 -2.6
v 1.9 2 -2.6
v 4.3 2 -2.6
v 1.8 2 -3.8
v 1.9 2 -3.8
v 4.3 2 -3.8
v 1.9 2 -3.9
v 4.4 2 -3.9
v 1.7 2.2 -2.5
v 1.9 2.2 -2.5
v 4.4 2.2 -2.5
v 4.6 2.2 -2.5
v 1.6 2.2 -2.6
v 1.7 2.2 -2.6
v 1.8 2.2 -2.6
v 1.9 2.2 -2.6
v 1.6 2.2 -3.8
v 1.7 2.2 -3.8
v 1.8 2.2 -3.8
v 1.9 2.2 -3.8
v 1.7 2.2 -3.9
v 1.9 2.2 -3.9
v 4.4 2.2 -3.9
v 4.6 2.2 -3.9
v 1.5 2.4 -2.5
v 1.7 2.4 -2.5
v 4.6 2.4 -2.5
v 4.7 2.4 -2.5
v 1.4 2.4 -2.6
v 1.5 2.4 -2.6
v 1.6 2.4 -2.6
v 1.7 2.4 -2.6
v 4.7 2.4 -2.6
v 4.8 2.4 -2.6
v 1.3 2.4 -2.7
v 1.4 2.4 -2.7
v 4.8 2.4 -2.7
v 4.9 2.4 -2.7
v 1.3 2.4 -3.7
v 1.4 2.4 -3.7
v 4.8 2.4 -3.7
v 4.9 2.4 -3.7
v 1.4 2.4 -3.8
v 1.5 2.4 -3.8
v 1.6 2.4 -3.8
v 1.7 2.4 -3.8
v 4.7 2.4 -3.8
v 4.8 2.4 -3.8
v 1.5 2.4 -3.9
v 1.7 2.4 -3.9
v 4.6 2.4 -3.9
v 4.7 2.4 -3.9
v 1.8 7.4 -3.8
v 1.9 7.4 -3.8
v 1.8 7.4 -3.9
v 1.9 7.4 -3.9
v 1.5 7 -2.5
v 1.6 7 -2.5
v 4.6 7 -2.5
v 4.7 7 -2.5
v 1.4 7 -2.6
v 1.5 7 -2.6
v 4.7 7 -2.6
v 4.8 7 -2.6
v 1.3 7 -2.7
v 1.4 7 -2.7
v 4.8 7 -2.7
v 4.9 7 -2.7
v 1.3 7 -3.7
v 1.4 7 -3.7
v 4.8 7 -3.7
v 4.9 7 -3.7
v 1.4 7 -3.8
v 1.5 7 -3.8
v 1.6 7 -3.8
v 1.7 7 -3.8
v 4.7 7 -3.8
v 4.8 7 -3.8
v 1.5 7 -3.9
v 1.7 7 -3.9
v 4.6 7 -3.9
v 4.7 7 -3.9
v 1.6 7.2 -2.5
v 1.8 7.2 -2.5
v 4.4 7.2 -2.5
v 4.6 7.2 -2.5
v 1.6 7.2 -3.8
v 1.7 7.2 -3.8
v 1.8 7.2 -3.8
v 1.9 7.2 -3.8
v 1.7 7.2 -3.9
v 1.9 7.2 -3.9
v 4.4 7.2 -3.9
v 4.6 7.2 -3.9
v 1.8 7.5 -2.5
v 1.9 7.5 -2.5
v 1.8 7.5 -3.9
v 1.9 7.5 -3.9
v 1.9 7.6 -2.5
v 2 7.6 -2.5
v 4.2 7.6 -2.5
v 4.4 7.6 -2.5
v 1.9 7.6 -3.9
v 2 7.6 -3.9
v 4.2 7.6 -3.9
v 4.4 7.6 -3.9
v 2 7.8 -2.5
v 4.2 7.8 -2.5
v 2.2 7.8 -2.7
v 4 7.8 -2.7
v 2.4 7.8 -3.1
v 3 7.8 -3.1
v 2.4 7.8 -3.3
v 3 7.8 -3.3
v 2.2 7.8 -3.7
v 4 7.8 -3.7
v 2 7.8 -3.9
v 4.2 7.8 -3.9

# faces
f 3/5/1 2/5/1 1/5/1
f 4/5/1 2/5/1 3/5/1
f 9/5/1 6/5/1 5/5/1
f 10/5/1 6/5/1 9/5/1
f 11/5/1 8/5/1 7/5/1
f 12/5/1 8/5/1 11/5/1
f 17/5/1 14/5/1 13/5/1
f 18/5/1 14/5/1 17/5/1
f 19/5/1 16/5/1 15/5/1
f 20/5/1 16/5/1 19/5/1
f 23/4/1 22/4/1 21/4/1
f 24/4/1 22/4/1 23/4/1
f 27/5/1 26/5/1 25/5/1
f 28/5/1 26/5/1 27/5/1
f 33/4/1 30/4/1 29/4/1
f 34/4/1 30/4/1 33/4/1
f 35/4/1 32/4/1 31/4/1
f 36/4/1 32/4/1 35/4/1
f 39/5/1 38/5/1 37/5/1
f 40/5/1 38/5/1 39/5/1
f 43/6/1 42/6/1 41/6/1
f 44/6/1 42/6/1 43/6/1
f 47/6/1 46/6/1 45/6/1
f 48/6/1 46/6/1 47/6/1
f 50/4/1 48/4/1 47/4/1
f 50/4/1 49/4/1 48/4/1
f 51/4/1 49/4/1 50/4/1
f 56/6/1 53/6/1 52/6/1
f 57/6/1 53/6/1 56/6/1
f 58/6/1 55/6/1 54/6/1
f 59/6/1 55/6/1 58/6/1
f 62/6/1 61/6/1 60/6/1
f 63/6/1 61/6/1 62/6/1
f 66/4/1 65/4/1 64/4/1
f 67/4/1 65/4/1 66/4/1
f 70/6/1 69/6/1 68/6/1
f 71/6/1 69/6/1 70/6/1
f 72/6/2 73/6/2 74/6/2
f 74/6/2 73/6/2 75/6/2
f 76/6/2 77/6/2 78/6/2
f 78/6/2 77/6/2 79/6/2
f 80/6/2 81/6/2 82/6/2
f 82/6/2 81/6/2 83/6/2
f 82/4/2 83/4/2 84/4/2
f 84/4/2 83/4/2 85/4/2
f 86/4/2 87/4/2 88/4/2
f 88/4/2 87/4/2 89/4/2
f 90/5/2 91/5/2 92/5/2
f 92/5/2 91/5/2 93/5/2
f 94/5/2 95/5/2 98/5/2
f 98/5/2 95/5/2 99/5/2
f 96/5/2 97/5/2 100/5/2
f 100/5/2 97/5/2 101/5/2
f 102/5/2 103/5/2 106/5/2
f 106/5/2 103/5/2 107/5/2
f 104/5/2 105/5/2 108/5/2
f 108/5/2 105/5/2 109/5/2
f 110/5/2 111/5/2 112/5/2
f 112/5/2 111/5/2 113/5/2
f 116/5/3 115/5/3 114/5/3
f 119/5/3 116/5/3 114/5/3
f 119/5/3 117/5/3 116/5/3
f 120/5/3 117/5/3 119/5/3
f 124/4/3 119/4/3 118/4/3
f 125/4/3 122/4/3 121/4/3
f 127/5/3 120/5/3 119/5/3
f 128/5/3 120/5/3 127/5/3
f 129/4/3 126/4/3 125/4/3
f 131/5/3 120/5/3 128/5/3
f 131/2/3 128/2/3 127/2/3
f 132/5/3 120/5/3 131/5/3
f 133/2/3 132/2/3 131/2/3
f 133/5/3 120/5/3 132/5/3
f 134/6/3 121/6/3 120/6/3
f 134/5/3 120/5/3 133/5/3
f 135/2/3 133/2/3 131/2/3
f 135/5/3 127/5/3 119/5/3
f 135/2/3 134/2/3 133/2/3
f 135/2/3 131/2/3 127/2/3
f 136/2/3 134/2/3 135/2/3
f 137/5/3 136/5/3 135/5/3
f 137/2/3 134/2/3 136/2/3
f 138/2/3 134/2/3 137/2/3
f 139/5/3 138/5/3 137/5/3
f 139/2/3 134/2/3 138/2/3
f 140/6/3 121/6/3 134/6/3
f 140/2/3 134/2/3 139/2/3
f 141/5/3 139/5/3 137/5/3
f 141/5/3 140/5/3 139/5/3
f 142/6/3 121/6/3 140/6/3
f 142/5/3 140/5/3 141/5/3
f 143/5/3 141/5/3 137/5/3
f 143/5/3 137/5/3 135/5/3
f 144/3/3 142/3/3 141/3/3
f 144/5/3 141/5/3 143/5/3
f 145/5/3 135/5/3 119/5/3
f 145/5/3 143/5/3 135/5/3
f 146/3/3 144/3/3 143/3/3
f 146/5/3 143/5/3 145/5/3
f 147/3/3 142/3/3 144/3/3
f 147/3/3 144/3/3 146/3/3
f 147/3/3 146/3/3 145/3/3
f 148/6/3 121/6/3 142/6/3
f 148/3/3 142/3/3 147/3/3
f 149/3/3 147/3/3 145/3/3
f 150/5/3 148/5/3 147/5/3
f 150/3/3 147/3/3 149/3/3
f 151/6/3 130/6/3 129/6/3
f 151/4/3 129/4/3 125/4/3
f 152/6/3 130/6/3 151/6/3
f 153/6/3 124/6/3 123/6/3
f 154/4/3 119/4/3 124/4/3
f 154/6/3 124/6/3 153/6/3
f 155/5/3 145/5/3 119/5/3
f 155/3/3 149/3/3 145/3/3
f 156/5/3 150/5/3 149/5/3
f 156/3/3 149/3/3 155/3/3
f 157/5/3 148/5/3 150/5/3
f 157/5/3 150/5/3 156/5/3
f 157/6/3 121/6/3 148/6/3
f 158/4/3 151/4/3 125/4/3
f 158/6/3 121/6/3 157/6/3
f 158/4/3 125/4/3 121/4/3
f 159/4/3 151/4/3 158/4/3
f 160/4/3 119/4/3 154/4/3
f 161/5/3 156/5/3 155/5/3
f 161/4/3 119/4/3 160/4/3
f 161/5/3 157/5/3 156/5/3
f 161/5/3 155/5/3 119/5/3
f 162/5/3 157/5/3 161/5/3
f 163/5/3 157/5/3 162/5/3
f 164/5/3 162/5/3 161/5/3
f 165/5/3 162/5/3 164/5/3
f 168/5/3 167/5/3 166/5/3
f 169/5/3 167/5/3 168/5/3
f 172/4/3 171/4/3 170/4/3
f 173/4/3 171/4/3 172/4/3
f 176/6/3 175/6/3 174/6/3
f 177/6/3 175/6/3 176/6/3
f 180/5/3 179/5/3 178/5/3
f 181/5/3 179/5/3 180/5/3
f 184/5/3 183/5/3 182/5/3
f 185/5/3 183/5/3 184/5/3
f 188/5/3 187/5/3 186/5/3
f 189/5/3 187/5/3 188/5/3
f 190/5/4 191/5/4 192/5/4
f 192/5/4 191/5/4 193/5/4
f 194/5/4 195/5/4 196/5/4
f 196/5/4 195/5/4 197/5/4
f 198/5/4 199/5/4 200/5/4
f 200/5/4 199/5/4 201/5/4
f 202/4/4 203/4/4 206/4/4
f 206/4/4 203/4/4 207/4/4
f 204/5/4 205/5/4 208/5/4
f 208/5/4 205/5/4 209/5/4
f 210/6/4 211/6/4 214/6/4
f 214/6/4 211/6/4 215/6/4
f 212/6/4 213/6/4 216/6/4
f 216/6/4 213/6/4 217/6/4
f 218/5/4 219/5/4 220/5/4
f 220/5/4 219/5/4 221/5/4
f 222/5/4 223/5/4 225/5/4
f 225/5/4 223/5/4 226/5/4
f 224/4/4 225/4/4 231/4/4
f 225/5/4 226/5/4 232/5/4
f 226/5/4 227/5/4 232/5/4
f 228/4/4 229/4/4 233/4/4
f 233/4/4 229/4/4 234/4/4
f 225/5/4 232/5/4 236/5/4
f 236/5/4 232/5/4 237/5/4
f 234/4/4 235/4/4 238/4/4
f 233/4/4 234/4/4 238/4/4
f 237/5/4 232/5/4 240/5/4
f 236/2/4 237/2/4 240/2/4
f 240/5/4 232/5/4 241/5/4
f 240/2/4 241/2/4 242/2/4
f 241/5/4 232/5/4 242/5/4
f 232/6/4 233/6/4 243/6/4
f 242/5/4 232/5/4 243/5/4
f 240/2/4 242/2/4 244/2/4
f 225/5/4 236/5/4 244/5/4
f 242/2/4 243/2/4 244/2/4
f 236/2/4 240/2/4 244/2/4
f 244/2/4 243/2/4 245/2/4
f 244/5/4 245/5/4 246/5/4
f 245/2/4 243/2/4 246/2/4
f 246/2/4 243/2/4 247/2/4
f 246/5/4 247/5/4 248/5/4
f 247/2/4 243/2/4 248/2/4
f 243/6/4 233/6/4 249/6/4
f 248/2/4 243/2/4 249/2/4
f 246/5/4 248/5/4 250/5/4
f 248/5/4 249/5/4 250/5/4
f 249/6/4 233/6/4 251/6/4
f 250/5/4 249/5/4 251/5/4
f 246/5/4 250/5/4 252/5/4
f 244/5/4 246/5/4 252/5/4
f 250/3/4 251/3/4 253/3/4
f 252/5/4 250/5/4 253/5/4
f 225/5/4 244/5/4 254/5/4
f 244/5/4 252/5/4 254/5/4
f 252/3/4 253/3/4 255/3/4
f 254/5/4 252/5/4 255/5/4
f 253/3/4 251/3/4 256/3/4
f 255/3/4 253/3/4 256/3/4
f 254/3/4 255/3/4 256/3/4
f 251/6/4 233/6/4 257/6/4
f 256/3/4 251/3/4 257/3/4
f 254/3/4 256/3/4 258/3/4
f 256/5/4 257/5/4 259/5/4
f 258/3/4 256/3/4 259/3/4
f 238/6/4 239/6/4 260/6/4
f 233/4/4 238/4/4 260/4/4
f 260/6/4 239/6/4 261/6/4
f 230/6/4 231/6/4 262/6/4
f 231/4/4 225/4/4 263/4/4
f 262/6/4 231/6/4 263/6/4
f 225/5/4 254/5/4 264/5/4
f 254/3/4 258/3/4 264/3/4
f 258/5/4 259/5/4 265/5/4
f 264/3/4 258/3/4 265/3/4
f 259/5/4 257/5/4 266/5/4
f 265/5/4 259/5/4 266/5/4
f 257/6/4 233/6/4 266/6/4
f 233/4/4 260/4/4 267/4/4
f 266/6/4 233/6/4 267/6/4
f 267/4/4 260/4/4 268/4/4
f 263/4/4 225/4/4 269/4/4
f 264/5/4 265/5/4 270/5/4
f 269/4/4 225/4/4 270/4/4
f 265/5/4 266/5/4 270/5/4
f 225/5/4 264/5/4 270/5/4
f 270/5/4 266/5/4 271/5/4
f 271/5/4 266/5/4 272/5/4
f 270/5/4 271/5/4 273/5/4
f 273/5/4 271/5/4 274/5/4
f 278/6/5 276/6/5 275/6/5
f 279/6/5 276/6/5 278/6/5
f 280/6/5 278/6/5 277/6/5
f 281/4/5 279/4/5 278/4/5
f 281/6/5 278/6/5 280/6/5
f 282/6/5 276/6/5 279/6/5
f 282/4/5 279/4/5 281/4/5
f 283/6/5 282/6/5 281/6/5
f 284/6/5 276/6/5 282/6/5
f 284/6/5 282/6/5 283/6/5
f 290/4/5 286/4/5 285/4/5
f 291/4/5 286/4/5 290/4/5
f 292/4/5 286/4/5 291/4/5
f 293/4/5 290/4/5 289/4/5
f 293/4/5 291/4/5 290/4/5
f 294/4/5 291/4/5 293/4/5
f 295/4/5 291/4/5 294/4/5
f 297/4/5 296/4/5 295/4/5
f 297/4/5 295/4/5 294/4/5
f 298/4/5 296/4/5 297/4/5
f 299/4/5 288/4/5 287/4/5
f 300/4/5 288/4/5 299/4/5
f 306/5/5 302/5/5 301/5/5
f 307/5/5 302/5/5 306/5/5
f 308/5/5 302/5/5 307/5/5
f 309/5/5 304/5/5 303/5/5
f 312/5/5 306/5/5 305/5/5
f 312/5/5 307/5/5 306/5/5
f 313/5/5 310/5/5 309/5/5
f 315/5/5 312/5/5 311/5/5
f 316/5/5 307/5/5 312/5/5
f 316/5/5 312/5/5 315/5/5
f 317/5/5 314/5/5 313/5/5
f 317/5/5 313/5/5 309/5/5
f 318/5/5 314/5/5 317/5/5
f 319/5/5 307/5/5 316/5/5
f 320/5/5 307/5/5 319/5/5
f 321/5/5 307/5/5 320/5/5
f 323/5/5 309/5/5 303/5/5
f 323/5/5 317/5/5 309/5/5
f 324/5/5 317/5/5 323/5/5
f 325/5/5 322/5/5 321/5/5
f 325/5/5 321/5/5 320/5/5
f 326/5/5 322/5/5 325/5/5
f 327/5/5 323/5/5 303/5/5
f 328/5/5 323/5/5 327/5/5
f 331/4/5 330/4/5 329/4/5
f 332/4/5 330/4/5 331/4/5
f 333/5/6 334/5/6 338/5/6
f 335/5/6 336/5/6 339/5/6
f 337/5/6 338/5/6 342/5/6
f 339/5/6 340/5/6 343/5/6
f 341/5/6 342/5/6 345/5/6
f 342/5/6 338/5/6 346/5/6
f 345/5/6 342/5/6 346/5/6
f 343/5/6 344/5/6 347/5/6
f 339/5/6 343/5/6 347/5/6
f 347/5/6 344/5/6 348/5/6
f 346/5/6 338/5/6 349/5/6
f 338/5/6 334/5/6 350/5/6
f 349/5/6 338/5/6 350/5/6
f 350/5/6 334/5/6 351/5/6
f 335/5/6 339/5/6 353/5/6
f 339/5/6 347/5/6 353/5/6
f 353/5/6 347/5/6 354/5/6
f 351/5/6 352/5/6 355/5/6
f 350/5/6 351/5/6 355/5/6
f 355/5/6 352/5/6 356/5/6
f 335/5/6 353/5/6 357/5/6
f 357/5/6 353/5/6 358/5/6
f 359/5/6 360/5/6 363/5/6
f 363/5/6 360/5/6 364/5/6
f 364/5/6 360/5/6 365/5/6
f 365/5/6 366/5/6 367/5/6
f 364/5/6 365/5/6 367/5/6
f 367/5/6 366/5/6 368/5/6
f 361/5/6 362/5/6 369/5/6
f 369/5/6 362/5/6 370/5/6
f 371/4/6 372/4/6 373/4/6
f 373/4/6 372/4/6 374/4/6
f 375/4/6 376/4/6 379/4/6
f 379/4/6 376/4/6 380/4/6
f 377/4/6 378/4/6 381/4/6
f 381/4/6 378/4/6 382/4/6
f 383/6/6 384/6/6 385/6/6
f 385/6/6 384/6/6 386/6/6
f 385/4/6 386/4/6 387/4/6
f 387/4/6 386/4/6 388/4/6
f 385/4/6 387/4/6 389/4/6
f 387/1/6 388/1/6 389/1/6
f 388/4/6 386/4/6 390/4/6
f 389/1/6 388/1/6 390/1/6
f 383/6/6 385/6/6 391/6/6
f 385/4/6 389/4/6 391/4/6
f 389/4/6 390/4/6 391/4/6
f 390/4/6 386/4/6 392/4/6
f 391/4/6 390/4/6 392/4/6
f 386/6/6 384/6/6 392/6/6
f 383/6/6 391/6/6 393/6/6
f 391/6/6 392/6/6 393/6/6
f 392/6/6 384/6/6 394/6/6
f 393/6/6 392/6/6 394/6/6
