# MagicaVoxel @ Ephtracy

# group
o 

# material
mtllib PlayerHand.mtl
usemtl palette

# normals
vn -1 0 0
vn 1 0 0
vn 0 0 1
vn 0 0 -1
vn 0 -1 0
vn 0 1 0

# texcoords
vt 0.810547 0.5
vt 0.857422 0.5
vt 0.982422 0.5

# verts
v 0 2 -0.7
v 0 2 -1.3
v 0 2.1 -0.6
v 0 2.1 -0.7
v 0 2.1 -1.3
v 0 2.1 -1.4
v 0 2.3 -0.6
v 0 2.3 -0.7
v 0 2.3 -1.3
v 0 2.3 -1.4
v 0 2.4 -0.7
v 0 2.4 -0.9
v 0 2.4 -1.1
v 0 2.4 -1.3
v 0 2.5 -0.7
v 0 2.5 -0.9
v 0 2.5 -1.1
v 0 2.5 -1.3
v 0 2.6 -0.6
v 0 2.6 -0.7
v 0 2.6 -1.3
v 0 2.6 -1.4
v 0 2.8 -0.6
v 0 2.8 -0.7
v 0 2.8 -1.3
v 0 2.8 -1.4
v 0 2.9 -0.7
v 0 2.9 -1.3
v 0.7 2.4 -0.9
v 0.7 2.4 -1.1
v 0.7 2.5 -0.9
v 0.7 2.5 -1.1
v 0.8 2 -0.7
v 0.8 2 -1.3
v 0.8 2.1 -0.6
v 0.8 2.1 -0.7
v 0.8 2.1 -0.9
v 0.8 2.1 -1.1
v 0.8 2.1 -1.3
v 0.8 2.1 -1.4
v 0.8 2.3 -0.6
v 0.8 2.3 -0.7
v 0.8 2.3 -0.9
v 0.8 2.3 -1.1
v 0.8 2.3 -1.3
v 0.8 2.3 -1.4
v 0.8 2.4 -0.7
v 0.8 2.4 -1.3
v 0.8 2.5 -0.7
v 0.8 2.5 -1.3
v 0.8 2.6 -0.6
v 0.8 2.6 -0.7
v 0.8 2.6 -0.9
v 0.8 2.6 -1.1
v 0.8 2.6 -1.3
v 0.8 2.6 -1.4
v 0.8 2.8 -0.6
v 0.8 2.8 -0.7
v 0.8 2.8 -0.9
v 0.8 2.8 -1.1
v 0.8 2.8 -1.3
v 0.8 2.8 -1.4
v 0.8 2.9 -0.7
v 0.8 2.9 -1.3
v 1.6 2.1 -0.7
v 1.6 2.1 -0.9
v 1.6 2.1 -1.1
v 1.6 2.1 -1.3
v 1.6 2.2 -0.8
v 1.6 2.2 -0.9
v 1.6 2.2 -1.1
v 1.6 2.2 -1.2
v 1.6 2.3 -0.7
v 1.6 2.3 -0.8
v 1.6 2.3 -0.9
v 1.6 2.3 -1.1
v 1.6 2.3 -1.2
v 1.6 2.3 -1.3
v 1.6 2.6 -0.7
v 1.6 2.6 -0.8
v 1.6 2.6 -0.9
v 1.6 2.6 -1.1
v 1.6 2.6 -1.2
v 1.6 2.6 -1.3
v 1.6 2.7 -0.8
v 1.6 2.7 -0.9
v 1.6 2.7 -1.1
v 1.6 2.7 -1.2
v 1.6 2.8 -0.7
v 1.6 2.8 -0.9
v 1.6 2.8 -1.1
v 1.6 2.8 -1.3
v 0 2.1 -0.6
v 0 2.3 -0.6
v 0 2.6 -0.6
v 0 2.8 -0.6
v 0.8 2.1 -0.6
v 0.8 2.3 -0.6
v 0.8 2.6 -0.6
v 0.8 2.8 -0.6
v 0 2 -0.7
v 0 2.1 -0.7
v 0 2.3 -0.7
v 0 2.4 -0.7
v 0 2.5 -0.7
v 0 2.6 -0.7
v 0 2.8 -0.7
v 0 2.9 -0.7
v 0.8 2 -0.7
v 0.8 2.1 -0.7
v 0.8 2.3 -0.7
v 0.8 2.4 -0.7
v 0.8 2.5 -0.7
v 0.8 2.6 -0.7
v 0.8 2.8 -0.7
v 0.8 2.9 -0.7
v 1.5 2.1 -0.7
v 1.5 2.3 -0.7
v 1.5 2.6 -0.7
v 1.5 2.8 -0.7
v 1.6 2.1 -0.7
v 1.6 2.3 -0.7
v 1.6 2.6 -0.7
v 1.6 2.8 -0.7
v 0 2.4 -0.9
v 0 2.5 -0.9
v 0.7 2.4 -0.9
v 0.7 2.5 -0.9
v 0.8 2.1 -1.1
v 0.8 2.3 -1.1
v 0.8 2.6 -1.1
v 0.8 2.8 -1.1
v 1.5 2.1 -1.1
v 1.5 2.2 -1.1
v 1.5 2.7 -1.1
v 1.5 2.8 -1.1
v 1.6 2.1 -1.1
v 1.6 2.2 -1.1
v 1.6 2.3 -1.1
v 1.6 2.6 -1.1
v 1.6 2.7 -1.1
v 1.6 2.8 -1.1
v 0.8 2.1 -0.9
v 0.8 2.3 -0.9
v 0.8 2.6 -0.9
v 0.8 2.8 -0.9
v 1.5 2.1 -0.9
v 1.5 2.2 -0.9
v 1.5 2.7 -0.9
v 1.5 2.8 -0.9
v 1.6 2.1 -0.9
v 1.6 2.2 -0.9
v 1.6 2.3 -0.9
v 1.6 2.6 -0.9
v 1.6 2.7 -0.9
v 1.6 2.8 -0.9
v 0 2.4 -1.1
v 0 2.5 -1.1
v 0.7 2.4 -1.1
v 0.7 2.5 -1.1
v 0 2 -1.3
v 0 2.1 -1.3
v 0 2.3 -1.3
v 0 2.4 -1.3
v 0 2.5 -1.3
v 0 2.6 -1.3
v 0 2.8 -1.3
v 0 2.9 -1.3
v 0.8 2 -1.3
v 0.8 2.1 -1.3
v 0.8 2.3 -1.3
v 0.8 2.4 -1.3
v 0.8 2.5 -1.3
v 0.8 2.6 -1.3
v 0.8 2.8 -1.3
v 0.8 2.9 -1.3
v 1.5 2.1 -1.3
v 1.5 2.3 -1.3
v 1.5 2.6 -1.3
v 1.5 2.8 -1.3
v 1.6 2.1 -1.3
v 1.6 2.3 -1.3
v 1.6 2.6 -1.3
v 1.6 2.8 -1.3
v 0 2.1 -1.4
v 0 2.3 -1.4
v 0 2.6 -1.4
v 0 2.8 -1.4
v 0.8 2.1 -1.4
v 0.8 2.3 -1.4
v 0.8 2.6 -1.4
v 0.8 2.8 -1.4
v 0 2 -0.7
v 0.8 2 -0.7
v 0 2 -1.3
v 0.8 2 -1.3
v 0 2.1 -0.6
v 0.8 2.1 -0.6
v 0 2.1 -0.7
v 0.8 2.1 -0.7
v 1.5 2.1 -0.7
v 1.6 2.1 -0.7
v 0.8 2.1 -0.9
v 1.5 2.1 -0.9
v 1.6 2.1 -0.9
v 0.8 2.1 -1.1
v 1.5 2.1 -1.1
v 1.6 2.1 -1.1
v 0 2.1 -1.3
v 0.8 2.1 -1.3
v 1.5 2.1 -1.3
v 1.6 2.1 -1.3
v 0 2.1 -1.4
v 0.8 2.1 -1.4
v 0 2.5 -0.7
v 0.8 2.5 -0.7
v 0 2.5 -0.9
v 0.7 2.5 -0.9
v 0 2.5 -1.1
v 0.7 2.5 -1.1
v 0 2.5 -1.3
v 0.8 2.5 -1.3
v 0 2.6 -0.6
v 0.8 2.6 -0.6
v 0 2.6 -0.7
v 0.8 2.6 -0.7
v 1.5 2.6 -0.7
v 1.6 2.6 -0.7
v 1.5 2.6 -0.8
v 1.6 2.6 -0.8
v 0.8 2.6 -0.9
v 1.6 2.6 -0.9
v 0.8 2.6 -1.1
v 1.6 2.6 -1.1
v 1.5 2.6 -1.2
v 1.6 2.6 -1.2
v 0 2.6 -1.3
v 0.8 2.6 -1.3
v 1.5 2.6 -1.3
v 1.6 2.6 -1.3
v 0 2.6 -1.4
v 0.8 2.6 -1.4
v 0 2.3 -0.6
v 0.8 2.3 -0.6
v 0 2.3 -0.7
v 0.8 2.3 -0.7
v 1.5 2.3 -0.7
v 1.6 2.3 -0.7
v 1.5 2.3 -0.8
v 1.6 2.3 -0.8
v 0.8 2.3 -0.9
v 1.6 2.3 -0.9
v 0.8 2.3 -1.1
v 1.6 2.3 -1.1
v 1.5 2.3 -1.2
v 1.6 2.3 -1.2
v 0 2.3 -1.3
v 0.8 2.3 -1.3
v 1.5 2.3 -1.3
v 1.6 2.3 -1.3
v 0 2.3 -1.4
v 0.8 2.3 -1.4
v 0 2.4 -0.7
v 0.8 2.4 -0.7
v 0 2.4 -0.9
v 0.7 2.4 -0.9
v 0 2.4 -1.1
v 0.7 2.4 -1.1
v 0 2.4 -1.3
v 0.8 2.4 -1.3
v 0 2.8 -0.6
v 0.8 2.8 -0.6
v 0 2.8 -0.7
v 0.8 2.8 -0.7
v 1.5 2.8 -0.7
v 1.6 2.8 -0.7
v 0.8 2.8 -0.9
v 1.5 2.8 -0.9
v 1.6 2.8 -0.9
v 0.8 2.8 -1.1
v 1.5 2.8 -1.1
v 1.6 2.8 -1.1
v 0 2.8 -1.3
v 0.8 2.8 -1.3
v 1.5 2.8 -1.3
v 1.6 2.8 -1.3
v 0 2.8 -1.4
v 0.8 2.8 -1.4
v 0 2.9 -0.7
v 0.8 2.9 -0.7
v 0 2.9 -1.3
v 0.8 2.9 -1.3

# faces
f 4/3/1 2/3/1 1/3/1
f 5/3/1 2/3/1 4/3/1
f 7/3/1 4/3/1 3/3/1
f 7/3/1 6/3/1 5/3/1
f 7/3/1 5/3/1 4/3/1
f 8/3/1 6/3/1 7/3/1
f 9/3/1 6/3/1 8/3/1
f 10/3/1 6/3/1 9/3/1
f 11/3/1 9/3/1 8/3/1
f 12/3/1 9/3/1 11/3/1
f 13/3/1 9/3/1 12/3/1
f 14/3/1 9/3/1 13/3/1
f 16/3/1 13/3/1 12/3/1
f 17/3/1 13/3/1 16/3/1
f 20/3/1 16/3/1 15/3/1
f 20/3/1 18/3/1 17/3/1
f 20/3/1 17/3/1 16/3/1
f 21/3/1 18/3/1 20/3/1
f 23/3/1 21/3/1 20/3/1
f 23/3/1 22/3/1 21/3/1
f 23/3/1 20/3/1 19/3/1
f 24/3/1 22/3/1 23/3/1
f 25/3/1 22/3/1 24/3/1
f 26/3/1 22/3/1 25/3/1
f 27/3/1 25/3/1 24/3/1
f 28/3/1 25/3/1 27/3/1
f 29/3/2 30/3/2 31/3/2
f 31/3/2 30/3/2 32/3/2
f 33/3/2 34/3/2 36/3/2
f 36/3/2 34/3/2 37/3/2
f 37/3/2 34/3/2 38/3/2
f 38/3/2 34/3/2 39/3/2
f 35/3/2 36/3/2 41/3/2
f 41/3/2 36/3/2 42/3/2
f 37/3/2 38/3/2 43/3/2
f 43/3/2 38/3/2 44/3/2
f 39/3/2 40/3/2 45/3/2
f 45/3/2 40/3/2 46/3/2
f 43/3/2 44/3/2 47/3/2
f 44/3/2 45/3/2 47/3/2
f 42/3/2 43/3/2 47/3/2
f 47/3/2 45/3/2 48/3/2
f 49/3/2 50/3/2 52/3/2
f 52/3/2 50/3/2 53/3/2
f 53/3/2 50/3/2 54/3/2
f 54/3/2 50/3/2 55/3/2
f 51/3/2 52/3/2 57/3/2
f 57/3/2 52/3/2 58/3/2
f 53/3/2 54/3/2 59/3/2
f 59/3/2 54/3/2 60/3/2
f 55/3/2 56/3/2 61/3/2
f 61/3/2 56/3/2 62/3/2
f 59/3/2 60/3/2 63/3/2
f 60/3/2 61/3/2 63/3/2
f 58/3/2 59/3/2 63/3/2
f 63/3/2 61/3/2 64/3/2
f 65/1/2 66/1/2 69/1/2
f 69/1/2 66/1/2 70/1/2
f 67/1/2 68/1/2 71/1/2
f 71/1/2 68/1/2 72/1/2
f 65/1/2 69/1/2 73/1/2
f 69/2/2 70/2/2 74/2/2
f 73/1/2 69/1/2 74/1/2
f 74/2/2 70/2/2 75/2/2
f 71/2/2 72/2/2 76/2/2
f 72/1/2 68/1/2 77/1/2
f 76/2/2 72/2/2 77/2/2
f 77/1/2 68/1/2 78/1/2
f 79/1/2 80/1/2 85/1/2
f 80/2/2 81/2/2 85/2/2
f 85/2/2 81/2/2 86/2/2
f 82/2/2 83/2/2 87/2/2
f 83/1/2 84/1/2 88/1/2
f 87/2/2 83/2/2 88/2/2
f 85/1/2 86/1/2 89/1/2
f 79/1/2 85/1/2 89/1/2
f 89/1/2 86/1/2 90/1/2
f 87/1/2 88/1/2 91/1/2
f 88/1/2 84/1/2 92/1/2
f 91/1/2 88/1/2 92/1/2
f 97/3/3 94/3/3 93/3/3
f 98/3/3 94/3/3 97/3/3
f 99/3/3 96/3/3 95/3/3
f 100/3/3 96/3/3 99/3/3
f 109/3/3 102/3/3 101/3/3
f 110/3/3 102/3/3 109/3/3
f 111/3/3 104/3/3 103/3/3
f 112/3/3 104/3/3 111/3/3
f 113/3/3 106/3/3 105/3/3
f 114/3/3 106/3/3 113/3/3
f 115/3/3 108/3/3 107/3/3
f 116/3/3 108/3/3 115/3/3
f 117/2/3 111/2/3 110/2/3
f 118/2/3 111/2/3 117/2/3
f 119/2/3 115/2/3 114/2/3
f 120/2/3 115/2/3 119/2/3
f 121/1/3 118/1/3 117/1/3
f 122/1/3 118/1/3 121/1/3
f 123/1/3 120/1/3 119/1/3
f 124/1/3 120/1/3 123/1/3
f 127/3/3 126/3/3 125/3/3
f 128/3/3 126/3/3 127/3/3
f 133/2/3 130/2/3 129/2/3
f 134/2/3 130/2/3 133/2/3
f 135/2/3 132/2/3 131/2/3
f 136/2/3 132/2/3 135/2/3
f 137/1/3 134/1/3 133/1/3
f 138/2/3 130/2/3 134/2/3
f 138/1/3 134/1/3 137/1/3
f 139/2/3 130/2/3 138/2/3
f 140/2/3 135/2/3 131/2/3
f 141/1/3 136/1/3 135/1/3
f 141/2/3 135/2/3 140/2/3
f 142/1/3 136/1/3 141/1/3
f 143/2/4 144/2/4 147/2/4
f 147/2/4 144/2/4 148/2/4
f 145/2/4 146/2/4 149/2/4
f 149/2/4 146/2/4 150/2/4
f 147/1/4 148/1/4 151/1/4
f 148/2/4 144/2/4 152/2/4
f 151/1/4 148/1/4 152/1/4
f 152/2/4 144/2/4 153/2/4
f 145/2/4 149/2/4 154/2/4
f 149/1/4 150/1/4 155/1/4
f 154/2/4 149/2/4 155/2/4
f 155/1/4 150/1/4 156/1/4
f 157/3/4 158/3/4 159/3/4
f 159/3/4 158/3/4 160/3/4
f 161/3/4 162/3/4 169/3/4
f 169/3/4 162/3/4 170/3/4
f 163/3/4 164/3/4 171/3/4
f 171/3/4 164/3/4 172/3/4
f 165/3/4 166/3/4 173/3/4
f 173/3/4 166/3/4 174/3/4
f 167/3/4 168/3/4 175/3/4
f 175/3/4 168/3/4 176/3/4
f 170/2/4 171/2/4 177/2/4
f 177/2/4 171/2/4 178/2/4
f 174/2/4 175/2/4 179/2/4
f 179/2/4 175/2/4 180/2/4
f 177/1/4 178/1/4 181/1/4
f 181/1/4 178/1/4 182/1/4
f 179/1/4 180/1/4 183/1/4
f 183/1/4 180/1/4 184/1/4
f 185/3/4 186/3/4 189/3/4
f 189/3/4 186/3/4 190/3/4
f 187/3/4 188/3/4 191/3/4
f 191/3/4 188/3/4 192/3/4
f 195/3/5 194/3/5 193/3/5
f 196/3/5 194/3/5 195/3/5
f 199/3/5 198/3/5 197/3/5
f 200/3/5 198/3/5 199/3/5
f 203/2/5 201/2/5 200/2/5
f 204/1/5 202/1/5 201/1/5
f 204/2/5 201/2/5 203/2/5
f 205/1/5 202/1/5 204/1/5
f 210/2/5 207/2/5 206/2/5
f 211/1/5 208/1/5 207/1/5
f 211/2/5 207/2/5 210/2/5
f 212/1/5 208/1/5 211/1/5
f 213/3/5 210/3/5 209/3/5
f 214/3/5 210/3/5 213/3/5
f 217/3/5 216/3/5 215/3/5
f 218/3/5 216/3/5 217/3/5
f 220/3/5 216/3/5 218/3/5
f 221/3/5 220/3/5 219/3/5
f 222/3/5 216/3/5 220/3/5
f 222/3/5 220/3/5 221/3/5
f 225/3/5 224/3/5 223/3/5
f 226/3/5 224/3/5 225/3/5
f 229/1/5 228/1/5 227/1/5
f 229/2/5 227/2/5 226/2/5
f 230/1/5 228/1/5 229/1/5
f 231/2/5 229/2/5 226/2/5
f 231/2/5 230/2/5 229/2/5
f 232/2/5 230/2/5 231/2/5
f 235/2/5 234/2/5 233/2/5
f 236/2/5 234/2/5 235/2/5
f 238/2/5 235/2/5 233/2/5
f 239/1/5 236/1/5 235/1/5
f 239/2/5 235/2/5 238/2/5
f 240/1/5 236/1/5 239/1/5
f 241/3/5 238/3/5 237/3/5
f 242/3/5 238/3/5 241/3/5
f 243/3/6 244/3/6 245/3/6
f 245/3/6 244/3/6 246/3/6
f 247/1/6 248/1/6 249/1/6
f 246/2/6 247/2/6 249/2/6
f 249/1/6 248/1/6 250/1/6
f 246/2/6 249/2/6 251/2/6
f 249/2/6 250/2/6 251/2/6
f 251/2/6 250/2/6 252/2/6
f 253/2/6 254/2/6 255/2/6
f 255/2/6 254/2/6 256/2/6
f 253/2/6 255/2/6 258/2/6
f 255/1/6 256/1/6 259/1/6
f 258/2/6 255/2/6 259/2/6
f 259/1/6 256/1/6 260/1/6
f 257/3/6 258/3/6 261/3/6
f 261/3/6 258/3/6 262/3/6
f 263/3/6 264/3/6 265/3/6
f 265/3/6 264/3/6 266/3/6
f 266/3/6 264/3/6 268/3/6
f 267/3/6 268/3/6 269/3/6
f 268/3/6 264/3/6 270/3/6
f 269/3/6 268/3/6 270/3/6
f 271/3/6 272/3/6 273/3/6
f 273/3/6 272/3/6 274/3/6
f 274/2/6 275/2/6 277/2/6
f 275/1/6 276/1/6 278/1/6
f 277/2/6 275/2/6 278/2/6
f 278/1/6 276/1/6 279/1/6
f 280/2/6 281/2/6 284/2/6
f 281/1/6 282/1/6 285/1/6
f 284/2/6 281/2/6 285/2/6
f 285/1/6 282/1/6 286/1/6
f 283/3/6 284/3/6 287/3/6
f 287/3/6 284/3/6 288/3/6
f 289/3/6 290/3/6 291/3/6
f 291/3/6 290/3/6 292/3/6
